# xmcd CD database file
#
# Track frame offsets:
#	150
#	16799
#	32035
#	49660
#
# Disc length: 1049 seconds
#
# Revision: 3
# Processed by: cddbd v1.5.2PL0 Copyright (c) Steve Scherf et al.
# Submitted via: CDex 1.51
#
DISCID=24041704
DTITLE=Sylian' - Welcome To My Store
DYEAR=2009
DGENRE=Pop
TTITLE0=Welcome To My Store
TTITLE1=Catalyse
TTITLE2=Ordinary Man
TTITLE3=Second Life
EXTD=YEAR: 2009
EXTT0=
EXTT1=
EXTT2=
EXTT3=
PLAYORDER=
